<?xml version="1.0" encoding="utf-8"?>
<!-- Generator: Adobe Illustrator 26.0.0, SVG Export Plug-In . SVG Version: 6.00 Build 0)  -->
<svg version="1.1" xmlns="http://www.w3.org/2000/svg" xmlns:xlink="http://www.w3.org/1999/xlink" x="0px" y="0px"
	 viewBox="0 0 197 77" style="enable-background:new 0 0 197 77;" xml:space="preserve">
<style type="text/css">
	.st0{fill:#6DB4E4;}
	.st1{fill:#282825;}
	.st2{font-family:'Algerian';}
	.st3{font-size:36.2635px;}
	.st4{fill:#FFFFFF;}
	.st5{font-size:26.1741px;}
</style>
<g id="Back">
	<path d="M181.99,77H15.01C6.72,77,0,70.28,0,61.99V15.01C0,6.72,6.72,0,15.01,0h166.97C190.28,0,197,6.72,197,15.01v46.97
		C197,70.28,190.28,77,181.99,77z"/>
</g>
<g id="Слой_1">
	<path class="st0" d="M6.11,14.99c0-4.1,3.33-7.43,7.43-7.43h24.49c4.1,0,7.43,3.33,7.43,7.43v1.05c0,4.1-3.33,7.43-7.43,7.43H13.54
		c-4.1,0-7.43-3.33-7.43-7.43"/>
	<path class="st0" d="M6.11,35.82c0-4.1,3.33-7.43,7.43-7.43h24.49c4.1,0,7.43,3.33,7.43,7.43v1.07c0,4.1-3.33,7.43-7.43,7.43H13.54
		c-4.1,0-7.43-3.33-7.43-7.43"/>
	<path class="st0" d="M6.11,58.23c0-4.97,4.03-9,9-9h58c4.97,0,9,4.03,9,9v0c0,4.97-4.03,9-9,9h-58
		C10.14,67.23,6.11,63.2,6.11,58.23"/>
	<path class="st0" d="M71.11,44.32H58.91c-6.08,0-11-4.93-11-11V18.56c0-6.08,4.93-11,11-11h12.19c6.08,0,11,4.93,11,11v14.76
		C82.11,39.39,77.18,44.32,71.11,44.32z"/>
	<text transform="matrix(0.9927 0 0 1 52.0135 36.7286)" class="st1 st2 st3">A</text>
	<text transform="matrix(1.0297 0 0 1 89.4543 30.486)"><tspan x="0" y="0" class="st4 st2 st5">Author </tspan><tspan x="0" y="31.41" class="st4 st2 st5">Text</tspan></text>
</g>
</svg>
