<?xml version="1.0" encoding="utf-8"?>
<!-- Generator: Adobe Illustrator 26.0.0, SVG Export Plug-In . SVG Version: 6.00 Build 0)  -->
<svg version="1.1" id="Слой_1" xmlns="http://www.w3.org/2000/svg" xmlns:xlink="http://www.w3.org/1999/xlink" x="0px" y="0px"
	 viewBox="0 0 76 61" style="enable-background:new 0 0 76 61;" xml:space="preserve">
<style type="text/css">
	.st0{fill:#6DB4E4;}
	.st1{fill:#282825;}
	.st2{font-family:'Algerian';}
	.st3{font-size:36.2635px;}
</style>
<path class="st0" d="M31.92,17.24H7.43C3.33,17.24,0,13.92,0,9.81V8.76c0-4.1,3.33-7.43,7.43-7.43h24.49c4.1,0,7.43,3.33,7.43,7.43
	v1.05C39.35,13.92,36.03,17.24,31.92,17.24z"/>
<path class="st0" d="M31.92,38.09H7.43c-4.1,0-7.43-3.33-7.43-7.43v-1.07c0-4.1,3.33-7.43,7.43-7.43h24.49
	c4.1,0,7.43,3.33,7.43,7.43v1.07C39.35,34.76,36.03,38.09,31.92,38.09z"/>
<path class="st0" d="M67,61H9c-4.97,0-9-4.03-9-9v0c0-4.97,4.03-9,9-9h58c4.97,0,9,4.03,9,9v0C76,56.97,71.97,61,67,61z"/>
<path class="st0" d="M65,38.09H52.81c-6.08,0-11-4.93-11-11V12.33c0-6.08,4.93-11,11-11H65c6.08,0,11,4.93,11,11v14.76
	C76,33.16,71.07,38.09,65,38.09z"/>
<text transform="matrix(0.9927 0 0 1 45.9046 30.5)" class="st1 st2 st3">A</text>
</svg>
