<?xml version="1.0" encoding="utf-8"?>
<!-- Generator: Adobe Illustrator 26.0.0, SVG Export Plug-In . SVG Version: 6.00 Build 0)  -->
<svg version="1.1" id="Слой_1" xmlns="http://www.w3.org/2000/svg" xmlns:xlink="http://www.w3.org/1999/xlink" x="0px" y="0px"
	 viewBox="0 0 595.28 841.89" style="enable-background:new 0 0 595.28 841.89;" xml:space="preserve">
<style type="text/css">
	.st0{fill:#010202;stroke:#000000;stroke-miterlimit:10;}
	.st1{fill:#FFFFFF;stroke:#000000;stroke-miterlimit:10;}
</style>
<path class="st0" d="M417.78,841.89H177.5C79.47,841.89,0,762.42,0,664.39V177.5C0,79.47,79.47,0,177.5,0h240.28
	c98.03,0,177.5,79.47,177.5,177.5v486.89C595.28,762.42,515.81,841.89,417.78,841.89z"/>
<path class="st1" d="M391.64,680h-188c-87.26,0-158-70.74-158-158V223c0-87.26,70.74-158,158-158h188c87.26,0,158,70.74,158,158v299
	C549.64,609.26,478.9,680,391.64,680z"/>
<path class="st1" d="M286.64,810h22c19.88,0,36-16.12,36-36v-15c0-19.88-16.12-36-36-36h-22c-19.88,0-36,16.12-36,36v15
	C250.64,793.88,266.76,810,286.64,810z"/>
</svg>
